<svg width="1205" height="439" viewBox="0 0 1205 439" fill="none" xmlns="http://www.w3.org/2000/svg">
<path d="M217.842 2.50623C334.046 2.50622 428.998 93.4922 435.346 208.11C436.432 215.524 437 223.018 437 230.543V412.368C437 432.23 415.487 444.633 398.298 434.682L339.85 400.843C305.041 424.419 263.049 438.191 217.842 438.191C97.5311 438.191 5.25895e-06 340.659 0 220.348C0.00019271 100.037 97.5312 2.50643 217.842 2.50623ZM220.933 118.679C219.991 115.457 212.826 115.456 211.884 118.679C198.205 165.489 161.215 202.502 114.096 216.149C110.914 217.07 110.914 223.63 114.096 224.551C161.215 238.195 198.208 275.21 211.885 322.017C212.826 325.24 219.992 325.24 220.934 322.017C234.612 275.207 271.602 238.194 318.722 224.551C321.903 223.63 321.904 217.071 318.723 216.149C271.603 202.502 234.609 165.486 220.933 118.679Z" fill="black"/>
<path d="M924.025 180.82C921.546 161.948 906.529 146.882 887.368 144.164C906.529 141.444 921.544 126.379 924.025 107.506C926.504 126.378 941.521 141.444 960.682 144.164C941.521 146.882 926.505 161.947 924.025 180.82Z" fill="black"/>
<path d="M905.695 412.979V194.075H943.785V412.979H905.695Z" fill="black"/>
<path d="M706.511 192.621H744.6V411.525H706.511V373.873C687.539 402.768 659.958 417.216 623.765 417.216C593.119 417.216 566.996 406.125 545.398 383.943C523.799 361.469 513 334.178 513 302.073C513 269.967 523.799 242.823 545.398 220.64C566.996 198.166 593.119 186.929 623.765 186.929C659.958 186.929 687.539 201.377 706.511 230.272V192.621ZM628.581 380.44C650.764 380.44 669.297 372.997 684.183 358.112C699.068 342.935 706.511 324.255 706.511 302.073C706.511 279.89 699.068 261.356 684.183 246.471C669.297 231.294 650.764 223.705 628.581 223.705C606.691 223.705 588.303 231.294 573.417 246.471C558.532 261.356 551.089 279.89 551.089 302.073C551.089 324.255 558.532 342.935 573.417 358.112C588.303 372.997 606.691 380.44 628.581 380.44Z" fill="black"/>
<path d="M809.377 233.755C821.928 206.611 844.694 193.039 877.675 193.039V232.879C858.996 232.003 842.943 236.965 829.517 247.765C816.09 258.564 809.377 275.93 809.377 299.864V415.883H771.288V196.979H809.377V233.755Z" fill="black"/>
<path d="M1166.41 192.621H1204.5V411.525H1166.41V373.873C1147.44 402.768 1119.86 417.216 1083.67 417.216C1053.02 417.216 1026.9 406.125 1005.3 383.943C983.7 361.469 972.9 334.178 972.9 302.073C972.9 269.967 983.7 242.823 1005.3 220.64C1026.9 198.166 1053.02 186.929 1083.67 186.929C1119.86 186.929 1147.44 201.377 1166.41 230.272V192.621ZM1088.48 380.44C1110.66 380.44 1129.2 372.997 1144.08 358.112C1158.97 342.935 1166.41 324.255 1166.41 302.073C1166.41 279.89 1158.97 261.356 1144.08 246.471C1129.2 231.294 1110.66 223.705 1088.48 223.705C1066.59 223.705 1048.2 231.294 1033.32 246.471C1018.43 261.356 1010.99 279.89 1010.99 302.073C1010.99 324.255 1018.43 342.935 1033.32 358.112C1048.2 372.997 1066.59 380.44 1088.48 380.44Z" fill="black"/>
<path d="M556.571 37.9714C566.837 37.9714 575.061 41.2377 581.243 47.7704C587.426 54.1865 590.518 62.9356 590.518 74.0179V127.738H575.294V74.8928C575.294 67.7768 573.369 62.294 569.52 58.4444C565.67 54.4781 560.362 52.495 553.596 52.495C546.014 52.495 539.889 54.8864 535.223 59.6693C530.557 64.3355 528.224 71.5681 528.224 81.3672V127.738H513V5.24949H528.224V52.8449C534.406 42.9292 543.855 37.9714 556.571 37.9714Z" fill="black"/>
<path d="M622.444 90.9913C623.96 98.8072 627.518 104.873 633.118 109.19C638.834 113.506 645.833 115.664 654.116 115.664C665.665 115.664 674.064 111.406 679.313 102.89L692.262 110.239C683.746 123.422 670.914 130.013 653.766 130.013C639.884 130.013 628.568 125.696 619.819 117.064C611.187 108.315 606.87 97.2907 606.87 83.992C606.87 70.8099 611.128 59.8443 619.644 51.0951C628.16 42.3459 639.184 37.9714 652.716 37.9714C665.548 37.9714 675.989 42.5209 684.038 51.6201C692.204 60.6025 696.287 71.4515 696.287 84.1669C696.287 86.3834 696.112 88.6582 695.762 90.9913H622.444ZM652.716 52.32C644.55 52.32 637.784 54.6531 632.418 59.3193C627.052 63.8689 623.727 69.9933 622.444 77.6926H680.888C679.605 69.41 676.339 63.1106 671.089 58.7944C665.84 54.4781 659.715 52.32 652.716 52.32Z" fill="black"/>
<path d="M713.786 127.738V0H729.01V127.738H713.786Z" fill="black"/>
<path d="M752.235 127.738V0H767.458V127.738H752.235Z" fill="black"/>
<path d="M864.526 116.714C855.544 125.58 844.637 130.013 831.804 130.013C818.972 130.013 808.065 125.58 799.083 116.714C790.217 107.848 785.784 96.9407 785.784 83.992C785.784 71.0432 790.217 60.1359 799.083 51.2701C808.065 42.4043 818.972 37.9714 831.804 37.9714C844.637 37.9714 855.544 42.4043 864.526 51.2701C873.509 60.1359 878 71.0432 878 83.992C878 96.9407 873.509 107.848 864.526 116.714ZM831.804 115.139C840.554 115.139 847.903 112.164 853.852 106.215C859.802 100.265 862.776 92.8578 862.776 83.992C862.776 75.1261 859.802 67.7185 853.852 61.7691C847.903 55.8197 840.554 52.8449 831.804 52.8449C823.172 52.8449 815.881 55.8197 809.932 61.7691C803.982 67.7185 801.007 75.1261 801.007 83.992C801.007 92.8578 803.982 100.265 809.932 106.215C815.881 112.164 823.172 115.139 831.804 115.139Z" fill="black"/>
</svg>
